<svg width="20" height="20" viewBox="0 0 20 20" fill="none" xmlns="http://www.w3.org/2000/svg">
<path d="M9.95166 6.7618C8.137 6.7618 6.6561 8.22285 6.6561 10.0132C6.6561 11.8035 8.137 13.2646 9.95166 13.2646C11.7663 13.2646 13.2472 11.8035 13.2472 10.0132C13.2472 8.22285 11.7663 6.7618 9.95166 6.7618ZM19.8359 10.0132C19.8359 8.66677 19.8482 7.33256 19.7716 5.98859C19.6949 4.42753 19.334 3.0421 18.177 1.90058C17.0175 0.756617 15.6157 0.40294 14.0334 0.327327C12.6687 0.251713 11.3164 0.263909 9.95413 0.263909C8.58942 0.263909 7.23708 0.251713 5.87485 0.327327C4.29259 0.40294 2.88833 0.759056 1.7313 1.90058C0.571793 3.04454 0.213311 4.42753 0.13667 5.98859C0.0600292 7.335 0.0723906 8.66921 0.0723906 10.0132C0.0723906 11.3572 0.0600292 12.6938 0.13667 14.0378C0.213311 15.5988 0.574265 16.9843 1.7313 18.1258C2.8908 19.2697 4.29259 19.6234 5.87485 19.699C7.23956 19.7747 8.5919 19.7625 9.95413 19.7625C11.3188 19.7625 12.6712 19.7747 14.0334 19.699C15.6157 19.6234 17.0199 19.2673 18.177 18.1258C19.3365 16.9818 19.6949 15.5988 19.7716 14.0378C19.8507 12.6938 19.8359 11.3596 19.8359 10.0132ZM9.95166 15.0159C7.14561 15.0159 4.88099 12.7816 4.88099 10.0132C4.88099 7.24475 7.14561 5.01049 9.95166 5.01049C12.7577 5.01049 15.0223 7.24475 15.0223 10.0132C15.0223 12.7816 12.7577 15.0159 9.95166 15.0159ZM15.23 5.97395C14.5748 5.97395 14.0458 5.45198 14.0458 4.8056C14.0458 4.15923 14.5748 3.63725 15.23 3.63725C15.8851 3.63725 16.4142 4.15923 16.4142 4.8056C16.4144 4.95909 16.3839 5.1111 16.3245 5.25294C16.265 5.39478 16.1778 5.52365 16.0678 5.63218C15.9578 5.74071 15.8272 5.82676 15.6834 5.88541C15.5396 5.94406 15.3856 5.97415 15.23 5.97395Z" fill="#363853"/>
</svg>
