<svg width="17" height="21" viewBox="0 0 17 21" fill="none" xmlns="http://www.w3.org/2000/svg">
<path d="M0.858747 7.59959C0.858747 6.71215 1.01598 5.87375 1.32584 5.09126C1.62188 4.33123 2.06171 3.63368 2.6219 3.03577C3.18095 2.44572 3.82069 1.93549 4.52264 1.51983C5.24283 1.08997 6.02253 0.765672 6.83728 0.557104C7.66187 0.343482 8.51096 0.235749 9.3635 0.236577C10.6804 0.236577 11.9059 0.511478 13.0424 1.059C14.1641 1.59653 15.1188 2.42146 15.8068 3.44756C16.5167 4.49127 16.8693 5.67186 16.8693 6.98819C16.8693 7.77753 16.7907 8.54976 16.63 9.30488C16.4722 10.0596 16.2214 10.7924 15.8831 11.487C15.5607 12.1594 15.1391 12.7809 14.6321 13.3314C14.1226 13.8732 13.5055 14.3057 12.8193 14.6021C12.0743 14.9243 11.2683 15.0864 10.4549 15.0778C9.88956 15.0778 9.32535 14.9466 8.76808 14.6831C8.2108 14.4208 7.81077 14.0603 7.57029 13.5984C7.48589 13.9189 7.37027 14.382 7.2165 14.9877C7.06851 15.5922 6.96908 15.9824 6.92515 16.1592C6.8789 16.3348 6.79334 16.628 6.66848 17.034C6.5838 17.3344 6.47517 17.6277 6.3436 17.9112L5.94588 18.68C5.77388 19.0099 5.58159 19.3292 5.37011 19.6359C5.16084 19.9348 4.90186 20.2918 4.59316 20.7024L4.42089 20.7629L4.30643 20.6397C4.18272 19.3473 4.11913 18.5739 4.11913 18.3184C4.11913 17.5622 4.21047 16.7135 4.39083 15.7713C4.56773 14.8303 4.84752 13.6474 5.22327 12.225C5.59903 10.8037 5.81407 9.96761 5.87188 9.72009C5.60712 9.18739 5.473 8.49159 5.473 7.63609C5.473 6.95283 5.68921 6.31291 6.12277 5.71064C6.55749 5.11065 7.10667 4.81065 7.77262 4.81065C8.28249 4.81065 8.6779 4.97719 8.96116 5.31141C9.24557 5.64448 9.38431 6.06425 9.38431 6.57641C9.38431 7.11936 9.20164 7.90528 8.83398 8.93303C8.46632 9.96191 8.28364 10.7296 8.28364 11.2395C8.28364 11.7562 8.47094 12.1885 8.84554 12.5273C9.21522 12.8662 9.7041 13.0499 10.2087 13.0394C10.6665 13.0394 11.0908 12.9368 11.4851 12.7303C11.8732 12.5299 12.2091 12.2438 12.4667 11.8942C13.0276 11.1349 13.4276 10.2716 13.6425 9.35621C13.7535 8.87485 13.839 8.41744 13.8922 7.98741C13.9489 7.5551 13.9731 7.14674 13.9731 6.75891C13.9731 5.3365 13.5153 4.22777 12.6054 3.43387C11.6909 2.63996 10.5 2.24529 9.03515 2.24529C7.36912 2.24529 5.97594 2.77684 4.86024 3.84337C3.74338 4.90647 3.18148 6.25816 3.18148 7.8973C3.18148 8.25889 3.23698 8.60793 3.34219 8.94557C3.44509 9.28207 3.55724 9.55013 3.67863 9.7486C3.79888 9.94366 3.91218 10.1341 4.01508 10.3098C4.11913 10.4855 4.17347 10.6109 4.17347 10.6862C4.17347 10.9166 4.1122 11.2166 3.98849 11.5874C3.86015 11.9581 3.70869 12.1429 3.52602 12.1429C3.50868 12.1429 3.437 12.1303 3.31213 12.1041C2.87968 11.9767 2.48914 11.7386 2.18024 11.414C1.8524 11.0775 1.59367 10.6817 1.41833 10.2482C1.24349 9.8163 1.10732 9.37012 1.01136 8.91477C0.907689 8.48392 0.856456 8.04241 0.858747 7.59959Z" fill="#363853"/>
</svg>
