<svg width="22" height="17" viewBox="0 0 22 17" fill="none" xmlns="http://www.w3.org/2000/svg">
<path d="M21.1703 2.27041C20.4052 2.59603 19.5726 2.83037 18.715 2.92165C19.6054 2.39976 20.2722 1.57526 20.5902 0.602846C19.7547 1.09322 18.8394 1.43708 17.8849 1.61917C17.486 1.1984 17.0035 0.863192 16.4675 0.634439C15.9315 0.405686 15.3535 0.288288 14.7695 0.289561C12.4067 0.289561 10.5064 2.17914 10.5064 4.49794C10.5064 4.82356 10.5464 5.14917 10.6114 5.46246C7.07349 5.27992 3.91807 3.61235 1.8203 1.05921C1.43807 1.70333 1.23776 2.43674 1.24023 3.18313C1.24023 4.64348 1.99282 5.93115 3.14047 6.68846C2.46415 6.66218 1.80366 6.47878 1.21272 6.15317V6.20497C1.21272 8.24995 2.67791 9.94465 4.63067 10.3344C4.26402 10.4284 3.88684 10.4764 3.50802 10.4775C3.23049 10.4775 2.96795 10.4503 2.70292 10.4133C3.24299 12.0809 4.81569 13.2921 6.68843 13.3316C5.22324 14.4638 3.38801 15.1299 1.39525 15.1299C1.0377 15.1299 0.707657 15.1175 0.365112 15.0781C2.25536 16.2745 4.49815 16.9652 6.91346 16.9652C14.7545 16.9652 19.045 10.5564 19.045 4.99377C19.045 4.81122 19.045 4.62868 19.0325 4.44613C19.8626 3.8467 20.5902 3.10419 21.1703 2.27041Z" fill="#363853"/>
</svg>
