<svg width="39" height="39" viewBox="0 0 39 39" fill="none" xmlns="http://www.w3.org/2000/svg">
<circle cx="19.5" cy="19.5" r="19.5" fill="#EEEEEF"/>
<path d="M18.9845 16.7618C17.1941 16.7618 15.7331 18.2228 15.7331 20.0132C15.7331 21.8035 17.1941 23.2646 18.9845 23.2646C20.7748 23.2646 22.2359 21.8035 22.2359 20.0132C22.2359 18.2228 20.7748 16.7618 18.9845 16.7618ZM28.7362 20.0132C28.7362 18.6668 28.7484 17.3326 28.6728 15.9886C28.5972 14.4275 28.241 13.0421 27.0995 11.9006C25.9556 10.7566 24.5726 10.4029 23.0115 10.3273C21.6651 10.2517 20.3309 10.2639 18.9869 10.2639C17.6405 10.2639 16.3063 10.2517 14.9623 10.3273C13.4013 10.4029 12.0158 10.7591 10.8743 11.9006C9.73034 13.0445 9.37666 14.4275 9.30105 15.9886C9.22544 17.335 9.23763 18.6692 9.23763 20.0132C9.23763 21.3572 9.22544 22.6938 9.30105 24.0378C9.37666 25.5988 9.73278 26.9843 10.8743 28.1258C12.0183 29.2697 13.4013 29.6234 14.9623 29.699C16.3087 29.7747 17.6429 29.7625 18.9869 29.7625C20.3333 29.7625 21.6675 29.7747 23.0115 29.699C24.5726 29.6234 25.958 29.2673 27.0995 28.1258C28.2435 26.9818 28.5972 25.5988 28.6728 24.0378C28.7508 22.6938 28.7362 21.3596 28.7362 20.0132ZM18.9845 25.0159C16.216 25.0159 13.9818 22.7816 13.9818 20.0132C13.9818 17.2448 16.216 15.0105 18.9845 15.0105C21.7529 15.0105 23.9872 17.2448 23.9872 20.0132C23.9872 22.7816 21.7529 25.0159 18.9845 25.0159ZM24.1921 15.974C23.5457 15.974 23.0237 15.452 23.0237 14.8056C23.0237 14.1592 23.5457 13.6373 24.1921 13.6373C24.8384 13.6373 25.3604 14.1592 25.3604 14.8056C25.3606 14.9591 25.3305 15.1111 25.2719 15.2529C25.2132 15.3948 25.1272 15.5237 25.0186 15.6322C24.9101 15.7407 24.7812 15.8268 24.6394 15.8854C24.4976 15.9441 24.3455 15.9741 24.1921 15.974Z" fill="#363853"/>
</svg>
