<svg width="39" height="39" viewBox="0 0 39 39" fill="none" xmlns="http://www.w3.org/2000/svg">
<circle cx="19.5" cy="19.5" r="19.5" fill="#EEEEEF"/>
<path d="M11.2896 16.5996C11.2896 15.7121 11.4447 14.8738 11.7504 14.0913C12.0425 13.3312 12.4764 12.6337 13.0291 12.0358C13.5807 11.4457 14.2118 10.9355 14.9044 10.5198C15.6149 10.09 16.3842 9.76567 17.188 9.5571C18.0015 9.34348 18.8392 9.23575 19.6803 9.23658C20.9796 9.23658 22.1887 9.51148 23.3099 10.059C24.4166 10.5965 25.3585 11.4215 26.0373 12.4476C26.7377 13.4913 27.0856 14.6719 27.0856 15.9882C27.0856 16.7775 27.008 17.5498 26.8494 18.3049C26.6938 19.0596 26.4463 19.7924 26.1126 20.487C25.7945 21.1594 25.3786 21.7809 24.8784 22.3314C24.3756 22.8732 23.7668 23.3057 23.0898 23.6021C22.3548 23.9243 21.5596 24.0864 20.7571 24.0778C20.1993 24.0778 19.6427 23.9466 19.0929 23.6831C18.5431 23.4208 18.1484 23.0603 17.9112 22.5984C17.8279 22.9189 17.7138 23.382 17.5621 23.9877C17.4161 24.5922 17.318 24.9824 17.2747 25.1592C17.229 25.3348 17.1446 25.628 17.0214 26.034C16.9379 26.3344 16.8307 26.6277 16.7009 26.9112L16.3085 27.68C16.1388 28.0099 15.9491 28.3292 15.7405 28.6359C15.534 28.9348 15.2785 29.2918 14.9739 29.7024L14.804 29.7629L14.6911 29.6397C14.569 28.3473 14.5063 27.5739 14.5063 27.3184C14.5063 26.5622 14.5964 25.7135 14.7743 24.7713C14.9489 23.8303 15.2249 22.6474 15.5956 21.225C15.9663 19.8037 16.1785 18.9676 16.2355 18.7201C15.9743 18.1874 15.842 17.4916 15.842 16.6361C15.842 15.9528 16.0553 15.3129 16.4831 14.7106C16.9119 14.1106 17.4538 13.8107 18.1108 13.8107C18.6138 13.8107 19.0039 13.9772 19.2834 14.3114C19.564 14.6445 19.7009 15.0642 19.7009 15.5764C19.7009 16.1194 19.5206 16.9053 19.1579 17.933C18.7952 18.9619 18.615 19.7296 18.615 20.2395C18.615 20.7562 18.7997 21.1885 19.1693 21.5273C19.534 21.8662 20.0164 22.0499 20.5142 22.0394C20.9659 22.0394 21.3845 21.9368 21.7735 21.7303C22.1564 21.5299 22.4878 21.2438 22.7419 20.8942C23.2954 20.1349 23.6899 19.2716 23.902 18.3562C24.0115 17.8749 24.0959 17.4174 24.1483 16.9874C24.2042 16.5551 24.2282 16.1467 24.2282 15.7589C24.2282 14.3365 23.7765 13.2278 22.8788 12.4339C21.9765 11.64 20.8016 11.2453 19.3564 11.2453C17.7127 11.2453 16.3382 11.7768 15.2374 12.8434C14.1356 13.9065 13.5812 15.2582 13.5812 16.8973C13.5812 17.2589 13.6359 17.6079 13.7397 17.9456C13.8413 18.2821 13.9519 18.5501 14.0717 18.7486C14.1903 18.9437 14.3021 19.1341 14.4036 19.3098C14.5063 19.4855 14.5599 19.6109 14.5599 19.6862C14.5599 19.9166 14.4994 20.2166 14.3774 20.5874C14.2508 20.9581 14.1013 21.1429 13.9211 21.1429C13.904 21.1429 13.8333 21.1303 13.7101 21.1041C13.2834 20.9767 12.8981 20.7386 12.5934 20.414C12.2699 20.0775 12.0147 19.6817 11.8417 19.2482C11.6692 18.8163 11.5348 18.3701 11.4402 17.9148C11.3379 17.4839 11.2873 17.0424 11.2896 16.5996Z" fill="#363853"/>
</svg>
