<svg width="39" height="39" viewBox="0 0 39 39" fill="none" xmlns="http://www.w3.org/2000/svg">
<circle cx="19.5" cy="19.5" r="19.5" fill="#EEEEEF"/>
<path d="M29.7632 13.2704C29.0084 13.596 28.1869 13.8304 27.3408 13.9216C28.2193 13.3998 28.8771 12.5753 29.1909 11.6028C28.3666 12.0932 27.4635 12.4371 26.5218 12.6192C26.1282 12.1984 25.6522 11.8632 25.1234 11.6344C24.5946 11.4057 24.0244 11.2883 23.4482 11.2896C21.1171 11.2896 19.2423 13.1791 19.2423 15.4979C19.2423 15.8236 19.2818 16.1492 19.3459 16.4625C15.8554 16.2799 12.7422 14.6124 10.6726 12.0592C10.2955 12.7033 10.0979 13.4367 10.1003 14.1831C10.1003 15.6435 10.8428 16.9312 11.9751 17.6885C11.3078 17.6622 10.6562 17.4788 10.0732 17.1532V17.205C10.0732 19.25 11.5187 20.9447 13.4453 21.3344C13.0835 21.4284 12.7114 21.4764 12.3377 21.4775C12.0639 21.4775 11.8049 21.4503 11.5434 21.4133C12.0762 23.0809 13.6278 24.2921 15.4755 24.3316C14.0299 25.4638 12.2193 26.1299 10.2532 26.1299C9.90048 26.1299 9.57486 26.1175 9.23691 26.0781C11.1018 27.2745 13.3145 27.9652 15.6975 27.9652C23.4334 27.9652 27.6664 21.5564 27.6664 15.9938C27.6664 15.8112 27.6664 15.6287 27.6541 15.4461C28.4731 14.8467 29.1909 14.1042 29.7632 13.2704Z" fill="#363853"/>
</svg>
