<svg width="21" height="20" viewBox="0 0 21 20" fill="none" xmlns="http://www.w3.org/2000/svg">
<path d="M1 0.814209L3.08 1.17003L4.04301 12.5099C4.12001 13.436 4.90301 14.1467 5.84301 14.1437H16.752C17.649 14.1457 18.41 13.4933 18.537 12.6156L19.486 6.13375C19.592 5.40926 19.083 4.73715 18.351 4.63238C18.287 4.62348 3.414 4.61854 3.414 4.61854" stroke="#363853" stroke-width="1.5" stroke-linecap="round" stroke-linejoin="round"/>
<path d="M12.375 8.27179H15.1479" stroke="#363853" stroke-width="1.5" stroke-linecap="round" stroke-linejoin="round"/>
<path fill-rule="evenodd" clip-rule="evenodd" d="M5.4043 17.5701C5.70527 17.5701 5.94824 17.8114 5.94824 18.108C5.94824 18.4057 5.70527 18.647 5.4043 18.647C5.10333 18.647 4.86035 18.4057 4.86035 18.108C4.86035 17.8114 5.10333 17.5701 5.4043 17.5701Z" fill="#363853" stroke="#363853" stroke-width="1.5" stroke-linecap="round" stroke-linejoin="round"/>
<path fill-rule="evenodd" clip-rule="evenodd" d="M16.6846 17.5701C16.9856 17.5701 17.2296 17.8114 17.2296 18.108C17.2296 18.4057 16.9856 18.647 16.6846 18.647C16.3836 18.647 16.1406 18.4057 16.1406 18.108C16.1406 17.8114 16.3836 17.5701 16.6846 17.5701Z" fill="#363853" stroke="#363853" stroke-width="1.5" stroke-linecap="round" stroke-linejoin="round"/>
</svg>
