<svg width="40" height="34" viewBox="0 0 40 34" fill="none" xmlns="http://www.w3.org/2000/svg">
<path d="M8.07053 25.544L8.53008 26.4002C8.85422 26.2961 9.1918 26.2192 9.53708 26.1706L9.32287 25.2585C8.89349 25.3189 8.47366 25.4146 8.07053 25.544Z" fill="url(#paint0_linear_0_399)"/>
<path d="M4.924 27.8437L6.00212 28.2476C6.37524 27.6522 6.94282 27.1425 7.64873 26.7689L6.97266 26.0039C6.09437 26.4688 5.3882 27.103 4.924 27.8437Z" fill="url(#paint1_linear_0_399)"/>
<path d="M37.8576 27.5828C37.8583 26.785 37.4781 26.015 36.7899 25.4206L35.8973 26.0386C36.2514 26.3442 36.4939 26.7174 36.5998 27.1195H32.467C32.3684 27.1195 32.2714 27.1384 32.1844 27.1744C32.0975 27.2103 32.0234 27.2624 31.9687 27.3258L29.7507 29.8994H28.2743V28.5095C28.2756 27.6496 28.7177 26.8253 29.5037 26.2173C30.2897 25.6093 31.3554 25.2673 32.467 25.2663H33.6649C34.2539 25.2655 34.83 25.3998 35.3205 25.6521L35.9838 24.8805C35.4666 24.6142 34.879 24.4408 34.2639 24.3728V22.9498C34.2639 22.8269 34.2008 22.709 34.0885 22.6222C33.9761 22.5353 33.8238 22.4865 33.6649 22.4865C33.0297 22.4859 32.4208 22.2905 31.9716 21.943C31.5225 21.5956 31.2698 21.1246 31.2691 20.6332V18.78H33.066C33.2248 18.78 33.3772 18.7312 33.4895 18.6443C33.6018 18.5574 33.6649 18.4396 33.6649 18.3167V15.0735C33.6649 14.9506 33.6018 14.8328 33.4895 14.7459C33.3772 14.659 33.2248 14.6102 33.066 14.6102H32.0096C31.7593 14.6105 31.5102 14.6371 31.2691 14.6891V14.1469C31.2691 14.0417 31.2229 13.9395 31.1379 13.8573L29.1781 11.9624C29.4349 11.6274 29.5272 11.2322 29.4383 10.8489C29.3493 10.4657 29.0851 10.1199 28.6937 9.87495C28.3024 9.62997 27.8102 9.50209 27.3071 9.51469C26.8039 9.52729 26.3234 9.67952 25.9534 9.94357C25.5834 10.2076 25.3486 10.5658 25.2919 10.9528C25.2352 11.3397 25.3604 11.7295 25.6446 12.0509C25.9288 12.3723 26.353 12.6039 26.8398 12.7033C27.3265 12.8027 27.8432 12.7633 28.2955 12.5923L30.0712 14.3094V14.894L27.438 14.2151C27.2655 14.1691 27.0842 14.146 26.9017 14.1469H21.9613L19.1177 11.5807C19.3556 11.4528 19.55 11.2824 19.6843 11.0838C19.8186 10.8853 19.8888 10.6645 19.8889 10.4404V10.2635L20.7557 9.92819C20.8317 9.89881 20.8987 9.85727 20.9523 9.80632C21.0059 9.75538 21.0449 9.6962 21.0667 9.6327C21.0885 9.56921 21.0926 9.50286 21.0787 9.43805C21.0648 9.37324 21.0333 9.31146 20.9862 9.2568L20.0024 8.11532C20.139 8.09493 20.2622 8.03839 20.3507 7.95542C20.4393 7.87244 20.4878 7.7682 20.4879 7.66059C20.4868 6.92358 20.1078 6.21701 19.4341 5.69587C18.7603 5.17473 17.8469 4.88158 16.8941 4.88074C15.7662 4.88074 14.7218 5.13133 13.945 5.79531C13.6084 6.08344 13.3535 6.42284 13.1965 6.79171C13.0396 7.16057 12.9841 7.55075 13.0336 7.93718L13.1618 8.9282C13.2157 9.35549 13.4797 9.75044 13.8993 10.0315V18.78C13.899 19.1055 14.0102 19.4252 14.2216 19.7066H13.3004C13.0963 19.7065 12.8937 19.7335 12.7014 19.7863V13.6836C12.7009 13.3151 12.5114 12.9618 12.1745 12.7012C11.8377 12.4407 11.3809 12.2941 10.9045 12.2937H3.71703C3.24063 12.2941 2.7839 12.4407 2.44703 12.7012C2.11017 12.9618 1.92069 13.3151 1.92015 13.6836V16.0001H3.11807V15.0735H11.5035V19.7066H3.11807V16.9268H1.92015V20.7098C1.92002 20.9269 2.01843 21.137 2.19821 21.3037C2.37799 21.4703 2.62772 21.5828 2.90379 21.6215L8.50869 22.4098V23.497C8.00088 23.588 7.50499 23.715 7.02732 23.8764H3.71703C3.55817 23.8764 3.40582 23.9252 3.2935 24.0121C3.18117 24.099 3.11807 24.2168 3.11807 24.3397V26.5388C2.33547 27.5553 1.92164 28.7163 1.92015 29.8994C1.92015 30.0223 1.98326 30.1401 2.09558 30.227C2.20791 30.3139 2.36026 30.3627 2.51911 30.3627H5.26466C5.6226 31.0471 6.23663 31.6332 7.02803 32.046C7.81944 32.4587 8.75215 32.6792 9.70661 32.6792C10.6611 32.6792 11.5938 32.4587 12.3852 32.046C13.1766 31.6332 13.7906 31.0471 14.1486 30.3627H24.2194C24.6366 30.3625 25.0492 30.295 25.4308 30.1645C25.8124 30.0339 26.1546 29.8433 26.4355 29.6046L27.0764 29.0591V30.3627C27.0764 30.4856 27.1395 30.6034 27.2518 30.6903C27.3642 30.7772 27.5165 30.826 27.6754 30.826H28.9164C29.4438 31.5326 30.2579 32.0848 31.2324 32.397C32.2069 32.7092 33.2873 32.7639 34.3062 32.5528C35.325 32.3416 36.2253 31.8763 36.8674 31.229C37.5095 30.5817 37.8576 29.7887 37.8576 28.9728C37.8581 28.6179 37.7924 28.2649 37.6625 27.9245C37.724 27.8812 37.7732 27.8285 37.8068 27.7696C37.8404 27.7108 37.8577 27.6472 37.8576 27.5828ZM26.4774 11.1354C26.4774 10.9979 26.5301 10.8636 26.6289 10.7493C26.7276 10.635 26.8679 10.5459 27.0321 10.4933C27.1962 10.4407 27.3769 10.427 27.5512 10.4538C27.7254 10.4806 27.8855 10.5468 28.0112 10.644C28.1368 10.7412 28.2224 10.865 28.257 10.9998C28.2917 11.1346 28.2739 11.2744 28.2059 11.4014C28.1379 11.5283 28.0228 11.6369 27.875 11.7132C27.7273 11.7896 27.5536 11.8304 27.3759 11.8304C27.1377 11.8302 26.9093 11.7569 26.7409 11.6266C26.5724 11.4963 26.4777 11.3197 26.4774 11.1354ZM17.9086 27.5828C17.322 27.5823 16.7597 27.4018 16.3449 27.081C15.9301 26.7602 15.6968 26.3252 15.6962 25.8714C15.6962 25.4166 15.8449 24.9912 16.2368 24.6412C16.586 24.3301 17.0682 24.1266 17.5954 24.0678C18.2318 23.9976 18.8141 23.7521 19.2354 23.3765C19.6567 23.0009 19.8887 22.5204 19.8889 22.0231C19.889 21.9623 19.8735 21.902 19.8434 21.8457C19.8133 21.7895 19.7691 21.7384 19.7133 21.6954C19.8151 21.5308 19.8739 21.3522 19.8864 21.1699C19.8988 20.9876 19.8647 20.8053 19.7859 20.6332H21.4126L18.7843 25.9192C18.7207 26.0465 18.6891 26.182 18.691 26.3184V27.5828H17.9086ZM19.8889 26.6562H22.8837C23.0121 26.6563 23.1372 26.6884 23.2403 26.7476C23.3434 26.8068 23.4192 26.8902 23.4564 26.9853C23.4936 27.0804 23.4904 27.1822 23.447 27.2757C23.4037 27.3693 23.3227 27.4496 23.2159 27.5048C23.0653 27.5558 22.9028 27.5824 22.7384 27.5828H19.8889V26.6562ZM24.537 26.5752C24.4178 26.3596 24.2303 26.1707 23.9918 26.0261C23.7533 25.8814 23.4715 25.7856 23.1724 25.7476L25.6529 21.1282C25.8733 20.7177 25.9594 20.2714 25.9035 19.8289C25.8475 19.3865 25.6513 18.9616 25.3323 18.5919C25.0132 18.2221 24.5811 17.919 24.0743 17.7094C23.5675 17.4997 23.0017 17.39 22.427 17.3901H19.8889V16.6554L20.0643 16.7911C20.1199 16.8341 20.186 16.8682 20.2586 16.8915C20.3313 16.9148 20.4092 16.9268 20.4879 16.9268H26.5805C26.4845 17.1364 26.455 17.3608 26.4944 17.581C26.5338 17.8013 26.641 18.0111 26.807 18.1927C26.973 18.3742 27.1928 18.5224 27.4482 18.6246C27.7035 18.7268 27.9868 18.7801 28.2743 18.78H28.276C27.8855 19.1804 27.6747 19.6684 27.6754 20.1699V23.764C27.6744 24.0096 27.5484 24.2451 27.3244 24.4192L24.537 26.5752ZM28.2743 17.8534C28.1559 17.8534 28.0401 17.8262 27.9416 17.7753C27.8431 17.7244 27.7663 17.652 27.7209 17.5674C27.6756 17.4827 27.6638 17.3895 27.6869 17.2997C27.71 17.2098 27.767 17.1272 27.8508 17.0625C27.9346 16.9977 28.0413 16.9535 28.1575 16.9357C28.2736 16.9178 28.3941 16.927 28.5035 16.962C28.613 16.9971 28.7065 17.0565 28.7723 17.1327C28.8381 17.2089 28.8733 17.2984 28.8733 17.3901C28.8731 17.5129 28.8099 17.6307 28.6976 17.7175C28.5854 17.8044 28.4331 17.8532 28.2743 17.8534ZM32.467 15.5368V17.8534H31.2691V15.6811C31.4969 15.5867 31.7512 15.5372 32.0096 15.5368H32.467ZM30.0712 17.3901C30.0713 17.1677 30.0024 16.9485 29.8702 16.751C29.7381 16.5535 29.5466 16.3834 29.3119 16.2551C29.0771 16.1267 28.806 16.0438 28.5212 16.0133C28.2364 15.9828 27.9464 16.0056 27.6754 16.0798V15.2531L30.0712 15.8708V17.3901ZM21.6858 15.0735H26.4774V16.0001H20.736L17.3176 13.356L16.4706 14.0112L18.691 15.7287V17.3901H15.0972V11.8304H17.8165L21.231 14.9118C21.2872 14.9625 21.357 15.0032 21.4355 15.0312C21.514 15.0591 21.5994 15.0735 21.6858 15.0735ZM14.8332 6.41707C15.3807 5.94907 16.1073 5.80735 16.8941 5.80735C17.4251 5.80788 17.9409 5.9446 18.3607 6.19611C18.7806 6.44762 19.0807 6.79972 19.2142 7.19728H16.8941C16.7353 7.19728 16.5829 7.24609 16.4706 7.33298C16.3583 7.41987 16.2951 7.53771 16.2951 7.66059V8.76094C16.2943 8.95363 16.1979 9.13871 16.0259 9.27809C15.8539 9.41747 15.6194 9.50054 15.3706 9.51019C15.1218 9.51983 14.8777 9.45533 14.6885 9.32996C14.4994 9.20458 14.3796 9.02788 14.3538 8.83623L14.2256 7.84522C14.1905 7.58747 14.2265 7.32689 14.3312 7.08071C14.436 6.83452 14.6071 6.60832 14.8332 6.41707ZM15.3218 10.4404C15.8975 10.44 16.4494 10.2629 16.8565 9.94802C17.2635 9.63315 17.4925 9.20623 17.4931 8.76094V8.1239H18.691C18.691 8.21538 18.726 8.30482 18.7916 8.38092L19.6132 9.33429L19.0217 9.56293C18.9223 9.60144 18.8387 9.66057 18.7803 9.73373C18.7219 9.80688 18.691 9.89115 18.691 9.97713V10.4404C18.6908 10.5633 18.6276 10.681 18.5154 10.7679C18.4031 10.8548 18.2508 10.9036 18.092 10.9037H15.0972V10.4313C15.1719 10.4373 15.2468 10.4404 15.3218 10.4404ZM15.0972 18.78V18.3167H22.427C22.8046 18.3167 23.1764 18.3888 23.5094 18.5265C23.8424 18.6643 24.1263 18.8635 24.3359 19.1064C24.5455 19.3494 24.6744 19.6286 24.7112 19.9193C24.7479 20.21 24.6913 20.5033 24.5465 20.773L21.8849 25.7296H20.162L22.8438 20.3362C22.8787 20.2661 22.891 20.1904 22.8796 20.1157C22.8682 20.041 22.8335 19.9696 22.7785 19.9076C22.7234 19.8456 22.6497 19.7949 22.5637 19.7599C22.4777 19.7249 22.3819 19.7066 22.2847 19.7066H16.2951C15.9776 19.7063 15.6731 19.6086 15.4485 19.4349C15.2239 19.2612 15.0976 19.0257 15.0972 18.78ZM13.3004 20.6332H18.092C18.2509 20.6332 18.4032 20.682 18.5156 20.7689C18.6279 20.8558 18.691 20.9737 18.691 21.0965C18.691 21.2194 18.6279 21.3373 18.5156 21.4241C18.4032 21.511 18.2509 21.5598 18.092 21.5598H13.3004C13.1415 21.5598 12.9892 21.511 12.8768 21.4241C12.7645 21.3373 12.7014 21.2194 12.7014 21.0965C12.7014 20.9737 12.7645 20.8558 12.8768 20.7689C12.9892 20.682 13.1415 20.6332 13.3004 20.6332ZM3.11807 14.1469V13.6836C3.11825 13.5608 3.18141 13.443 3.2937 13.3561C3.40598 13.2693 3.55823 13.2204 3.71703 13.2203H10.9045C11.0633 13.2204 11.2156 13.2693 11.3279 13.3561C11.4401 13.443 11.5033 13.5608 11.5035 13.6836V14.1469H3.11807ZM3.11807 20.6332H11.5035V21.5598H9.16163L3.11807 20.7098V20.6332ZM5.05645 24.803C4.79645 24.9663 4.5492 25.1413 4.31598 25.3272V24.803H5.05645ZM9.70661 31.7526C9.07645 31.7504 8.45795 31.6211 7.91225 31.3773C7.36655 31.1335 6.91256 30.7838 6.59517 30.3627H8.12341C8.56049 30.6612 9.12351 30.826 9.70661 30.826C10.2897 30.826 10.8527 30.6612 11.2898 30.3627H12.818C12.5007 30.7838 12.0467 31.1335 11.501 31.3773C10.9553 31.6211 10.3368 31.7504 9.70661 31.7526ZM25.5491 28.9815C25.3805 29.1246 25.1752 29.239 24.9462 29.3173C24.7172 29.3955 24.4697 29.436 24.2194 29.4361H3.14285C3.27166 28.2265 3.90118 27.0813 4.93799 26.1704C5.97481 25.2594 7.36366 24.6314 8.89846 24.3793C9.05329 24.3533 9.21125 24.34 9.36969 24.3397H13.3004V23.4131H9.70661V22.4865H18.5637C18.4622 22.6626 18.3046 22.816 18.1055 22.9322C17.9065 23.0484 17.6726 23.1236 17.4257 23.1508C16.6132 23.2412 15.8699 23.5548 15.3316 24.0341C14.752 24.5504 14.4983 25.1962 14.4983 25.8715C14.4978 26.4993 14.788 27.1064 15.3165 27.5828H10.3056V28.5095H22.7384C23.3729 28.5058 23.9806 28.3111 24.4325 27.9666L28.1715 25.0744C28.6193 24.7261 28.8714 24.2552 28.8733 23.764V20.1699C28.8737 19.8826 28.9891 19.6023 29.2035 19.3677C29.418 19.1331 29.7211 18.9555 30.0712 18.8594V20.6332C30.0723 21.29 30.3734 21.9253 30.9214 22.4269C31.4694 22.9285 32.229 23.2641 33.066 23.3744V24.3397C32.6941 24.3397 32.3136 24.3223 31.9439 24.3597C30.8234 24.4456 29.7657 24.8003 28.9186 25.374C28.0714 25.9478 27.4773 26.7119 27.2191 27.5597L25.5491 28.9815ZM32.7875 28.0462H32.8179L33.5409 28.6054C33.6665 28.703 33.7372 28.835 33.7376 28.9728C33.7376 29.0755 33.6982 29.176 33.6244 29.2614C33.5506 29.3468 33.4457 29.4134 33.323 29.4527C33.2003 29.4921 33.0652 29.5023 32.935 29.4823C32.8047 29.4623 32.685 29.4128 32.5911 29.3401L32.0398 28.9138L32.7875 28.0462ZM33.066 31.7526C32.547 31.7514 32.0344 31.6636 31.5632 31.4954C31.092 31.3272 30.6731 31.0825 30.3351 30.7778C30.4299 30.7421 30.5108 30.6875 30.5695 30.6197L31.0888 30.0174C31.3772 30.3446 31.7936 30.5917 32.2768 30.7224C32.76 30.8531 33.2847 30.8606 33.7738 30.7437C34.263 30.6269 34.6908 30.3919 34.9946 30.0731C35.2984 29.7544 35.4621 29.3688 35.4618 28.9728C35.4627 28.6982 35.3836 28.4271 35.2305 28.1794C35.2026 28.1338 35.1718 28.0896 35.1394 28.0462H36.455C36.6462 28.4655 36.7046 28.9142 36.6254 29.3546C36.5462 29.795 36.3316 30.2143 35.9997 30.5773C35.6678 30.9404 35.2281 31.2366 34.7177 31.4411C34.2072 31.6455 33.6408 31.7524 33.066 31.7526Z" fill="url(#paint2_linear_0_399)"/>
<path d="M5.5139 15.9996H4.31598V18.7795H5.5139V15.9996Z" fill="url(#paint3_linear_0_399)"/>
<ellipse opacity="0.15" cx="24.5" cy="13" rx="13.5" ry="13" fill="url(#paint4_linear_0_399)"/>
<defs>
<linearGradient id="paint0_linear_0_399" x1="8.07053" y1="25.7913" x2="9.50191" y2="25.7995" gradientUnits="userSpaceOnUse">
<stop stop-color="#47C2FF"/>
<stop offset="1" stop-color="#1CB4FF" stop-opacity="0.71"/>
</linearGradient>
<linearGradient id="paint1_linear_0_399" x1="4.924" y1="27.051" x2="7.5834" y2="27.0654" gradientUnits="userSpaceOnUse">
<stop stop-color="#47C2FF"/>
<stop offset="1" stop-color="#1CB4FF" stop-opacity="0.71"/>
</linearGradient>
<linearGradient id="paint2_linear_0_399" x1="1.92015" y1="17.8533" x2="36.9959" y2="18.0557" gradientUnits="userSpaceOnUse">
<stop stop-color="#47C2FF"/>
<stop offset="1" stop-color="#1CB4FF" stop-opacity="0.71"/>
</linearGradient>
<linearGradient id="paint3_linear_0_399" x1="4.31598" y1="17.2969" x2="5.4852" y2="17.2991" gradientUnits="userSpaceOnUse">
<stop stop-color="#47C2FF"/>
<stop offset="1" stop-color="#1CB4FF" stop-opacity="0.71"/>
</linearGradient>
<linearGradient id="paint4_linear_0_399" x1="11" y1="12.1333" x2="37.3528" y2="12.2555" gradientUnits="userSpaceOnUse">
<stop stop-color="#47C2FF"/>
<stop offset="1" stop-color="#63CBFE"/>
</linearGradient>
</defs>
</svg>
