<svg width="40" height="34" fill="none" xmlns="http://www.w3.org/2000/svg"><path d="m8.07 25.544.46.856a6.057 6.057 0 0 1 1.007-.23l-.214-.912c-.43.06-.85.157-1.252.286Z" fill="url(#a)"/><path d="m4.924 27.844 1.078.404c.373-.596.94-1.106 1.647-1.48l-.676-.764c-.879.465-1.585 1.099-2.049 1.84Z" fill="url(#b)"/><path d="M37.858 27.583c0-.798-.38-1.568-1.068-2.162l-.893.618c.354.305.597.678.703 1.08h-4.133a.743.743 0 0 0-.283.055.572.572 0 0 0-.215.152l-2.218 2.573h-1.477v-1.39c.002-.86.444-1.684 1.23-2.292.786-.608 1.851-.95 2.963-.95h1.198a3.624 3.624 0 0 1 1.656.385l.663-.771a4.959 4.959 0 0 0-1.72-.508V22.95a.418.418 0 0 0-.175-.328.698.698 0 0 0-.424-.136c-.635 0-1.244-.195-1.693-.543-.45-.347-.702-.818-.703-1.31V18.78h1.797a.698.698 0 0 0 .423-.136.418.418 0 0 0 .176-.327v-3.244a.418.418 0 0 0-.175-.327.698.698 0 0 0-.424-.136H32.01c-.25 0-.5.027-.74.08v-.543a.404.404 0 0 0-.132-.29l-1.96-1.895c.257-.335.35-.73.26-1.113-.089-.383-.353-.73-.744-.974a2.517 2.517 0 0 0-1.387-.36 2.452 2.452 0 0 0-1.354.429c-.37.264-.604.622-.661 1.009-.057.387.068.777.353 1.098.284.321.708.553 1.195.652.486.1 1.003.06 1.456-.11l1.775 1.716v.585l-2.633-.679a2.048 2.048 0 0 0-.536-.068h-4.94l-2.844-2.566a1.58 1.58 0 0 0 .566-.497c.135-.199.205-.42.205-.644v-.176l.867-.336a.597.597 0 0 0 .196-.122.437.437 0 0 0 .115-.173.362.362 0 0 0 .012-.195.41.41 0 0 0-.093-.181l-.984-1.142a.65.65 0 0 0 .349-.16.406.406 0 0 0 .137-.294c-.001-.737-.38-1.444-1.054-1.965-.674-.521-1.587-.814-2.54-.815-1.128 0-2.172.25-2.949.914a2.73 2.73 0 0 0-.748.997 2.196 2.196 0 0 0-.163 1.145l.128.991c.054.427.318.822.737 1.103v8.749c0 .325.111.645.323.927H13.3c-.204 0-.406.026-.599.08v-6.103c0-.369-.19-.722-.527-.983-.336-.26-.793-.407-1.27-.407H3.718c-.476 0-.933.147-1.27.407-.337.26-.526.614-.527.983V16h1.198v-.927h8.386v4.634H3.118v-2.78H1.92v3.783c0 .217.098.427.278.594.18.166.43.279.706.318l5.605.788v1.087a10.25 10.25 0 0 0-1.482.38h-3.31a.698.698 0 0 0-.424.135.418.418 0 0 0-.175.328v2.199c-.783 1.016-1.196 2.177-1.198 3.36 0 .123.063.241.176.328a.698.698 0 0 0 .423.136h2.746c.358.684.972 1.27 1.763 1.683a5.831 5.831 0 0 0 2.679.633c.954 0 1.887-.22 2.678-.633.792-.413 1.406-.999 1.764-1.683h10.07c.418 0 .83-.068 1.212-.198a3.1 3.1 0 0 0 1.005-.56l.64-.546v1.304c0 .123.064.24.176.327a.698.698 0 0 0 .423.136h1.241c.528.707 1.342 1.259 2.316 1.571a6.114 6.114 0 0 0 3.074.156c1.019-.211 1.92-.677 2.561-1.324.643-.647.99-1.44.99-2.256a2.92 2.92 0 0 0-.194-1.049.487.487 0 0 0 .144-.154.374.374 0 0 0 .05-.187Zm-11.38-16.448a.59.59 0 0 1 .15-.386.887.887 0 0 1 .404-.256c.164-.052.345-.066.52-.04.173.028.334.094.46.191a.665.665 0 0 1 .245.356.55.55 0 0 1-.051.401.769.769 0 0 1-.331.312 1.093 1.093 0 0 1-.5.117c-.237 0-.466-.073-.634-.203a.628.628 0 0 1-.264-.492Zm-8.57 16.448c-.586 0-1.148-.181-1.563-.502-.415-.32-.648-.756-.649-1.21 0-.454.149-.88.54-1.23.35-.31.832-.514 1.36-.573.636-.07 1.218-.316 1.64-.692.42-.375.653-.856.653-1.353a.374.374 0 0 0-.046-.177.474.474 0 0 0-.13-.15 1.103 1.103 0 0 0 .073-1.062h1.627l-2.629 5.285a.863.863 0 0 0-.093.4v1.264h-.782Zm1.98-.927h2.996c.128 0 .253.032.356.092.103.059.18.142.216.237a.364.364 0 0 1-.009.29.503.503 0 0 1-.231.23 1.55 1.55 0 0 1-.478.078h-2.85v-.927Zm4.649-.08a1.506 1.506 0 0 0-.545-.55 2.093 2.093 0 0 0-.82-.278l2.48-4.62a2.16 2.16 0 0 0 .252-1.3 2.347 2.347 0 0 0-.572-1.236 3.336 3.336 0 0 0-1.258-.883 4.328 4.328 0 0 0-1.647-.319h-2.538v-.735l.175.136a.635.635 0 0 0 .195.1c.072.024.15.036.229.036h6.093c-.096.21-.126.434-.087.654.04.22.147.43.313.612.166.181.386.33.641.432.255.102.539.155.826.155h.002c-.39.4-.601.888-.6 1.39v3.594c-.002.246-.128.481-.352.655l-2.787 2.156Zm3.737-8.723a.73.73 0 0 1-.332-.078.514.514 0 0 1-.221-.208.367.367 0 0 1-.034-.267.443.443 0 0 1 .164-.238.668.668 0 0 1 .306-.126.764.764 0 0 1 .346.026c.11.035.203.095.27.17a.393.393 0 0 1 .1.258.42.42 0 0 1-.175.328.698.698 0 0 1-.424.135Zm4.193-2.316v2.316h-1.198v-2.172c.228-.094.482-.144.74-.144h.458Zm-2.396 1.853c0-.222-.069-.442-.2-.639a1.572 1.572 0 0 0-.56-.496 2.125 2.125 0 0 0-.79-.242 2.295 2.295 0 0 0-.846.067v-.827l2.396.618v1.52Zm-8.385-2.317h4.791V16h-5.741l-3.418-2.644-.847.655 2.22 1.718v1.661h-3.594v-5.56h2.72l3.414 3.082c.056.05.126.091.204.12a.75.75 0 0 0 .25.041Zm-6.853-8.656c.548-.468 1.274-.61 2.061-.61a2.88 2.88 0 0 1 1.467.39c.42.25.72.603.853 1h-2.32a.698.698 0 0 0-.423.136.418.418 0 0 0-.176.328v1.1a.674.674 0 0 1-.27.517c-.171.14-.406.223-.654.232a1.165 1.165 0 0 1-.683-.18.72.72 0 0 1-.334-.494l-.128-.99c-.036-.259 0-.52.105-.765a1.8 1.8 0 0 1 .502-.664Zm.489 4.023c.576 0 1.127-.177 1.535-.492.407-.315.636-.742.636-1.187v-.637h1.198c0 .091.035.18.1.257l.822.953-.591.229a.57.57 0 0 0-.242.17.39.39 0 0 0-.089.244v.463a.417.417 0 0 1-.176.328.698.698 0 0 1-.423.136h-2.995v-.473c.075.006.15.01.225.01Zm-.225 8.34v-.463h7.33c.378 0 .75.072 1.082.21.333.137.617.336.827.58.21.242.338.522.375.812.037.291-.02.584-.164.854l-2.662 4.957h-1.723l2.682-5.394a.367.367 0 0 0 .036-.22.407.407 0 0 0-.101-.208.577.577 0 0 0-.215-.148.744.744 0 0 0-.28-.053h-5.989c-.317 0-.622-.098-.847-.272-.224-.174-.35-.41-.35-.655ZM13.3 20.633h4.792a.7.7 0 0 1 .424.136.418.418 0 0 1 .175.328c0 .122-.063.24-.175.327a.698.698 0 0 1-.424.136H13.3a.698.698 0 0 1-.423-.136.418.418 0 0 1-.176-.328c0-.122.063-.24.176-.327a.698.698 0 0 1 .423-.136ZM3.118 14.147v-.463c0-.123.063-.241.176-.328a.698.698 0 0 1 .423-.136h7.188c.158 0 .31.05.423.136a.419.419 0 0 1 .176.328v.463H3.118Zm0 6.486h8.386v.927H9.162l-6.044-.85v-.077Zm1.938 4.17c-.26.163-.507.338-.74.524v-.524h.74Zm4.65 6.95a4.46 4.46 0 0 1-1.794-.376c-.545-.243-1-.593-1.317-1.014h1.528c.437.298 1 .463 1.584.463.583 0 1.146-.165 1.583-.463h1.528c-.317.42-.771.77-1.317 1.014a4.461 4.461 0 0 1-1.794.376Zm15.843-2.771a1.861 1.861 0 0 1-.603.335 2.26 2.26 0 0 1-.727.12H3.143c.129-1.21.758-2.356 1.795-3.267 1.037-.91 2.426-1.539 3.96-1.79a2.75 2.75 0 0 1 .472-.04h3.93v-.927H9.707v-.927h8.857c-.102.177-.26.33-.459.446a1.728 1.728 0 0 1-.68.219c-.812.09-1.555.404-2.093.883a2.395 2.395 0 0 0-.834 1.838c0 .627.29 1.234.819 1.71h-5.011v.927h12.432c.635-.003 1.243-.198 1.695-.542l3.739-2.893c.447-.348.7-.819.701-1.31V20.17c0-.287.116-.568.33-.802.215-.235.518-.412.868-.509v1.774c.001.657.302 1.292.85 1.794s1.308.837 2.145.947v.966c-.372 0-.752-.018-1.122.02-1.12.086-2.178.44-3.025 1.014-.848.574-1.442 1.338-1.7 2.186l-1.67 1.422Zm7.239-.936h.03l.723.56a.47.47 0 0 1 .197.367.44.44 0 0 1-.114.288.664.664 0 0 1-.301.192.855.855 0 0 1-.388.03.749.749 0 0 1-.344-.143l-.551-.426.748-.868Zm.278 3.707a4.52 4.52 0 0 1-1.503-.258 3.677 3.677 0 0 1-1.228-.717.578.578 0 0 0 .235-.158l.519-.603c.288.328.705.575 1.188.705a3.059 3.059 0 0 0 1.497.022c.489-.117.917-.352 1.22-.67.304-.32.468-.705.468-1.101 0-.275-.078-.546-.232-.794a1.752 1.752 0 0 0-.09-.133h1.315c.191.42.25.868.17 1.309-.079.44-.293.86-.625 1.222-.332.363-.772.66-1.282.864a4.47 4.47 0 0 1-1.652.312Z" fill="url(#c)"/><path d="M5.514 16H4.316v2.78h1.198V16Z" fill="url(#d)"/><ellipse opacity=".15" cx="24.5" cy="13" rx="13.5" ry="13" fill="url(#e)"/><defs><linearGradient id="a" x1="8.071" y1="25.791" x2="9.502" y2="25.799" gradientUnits="userSpaceOnUse"><stop stop-color="#47C2FF"/><stop offset="1" stop-color="#1CB4FF" stop-opacity=".71"/></linearGradient><linearGradient id="b" x1="4.924" y1="27.051" x2="7.583" y2="27.065" gradientUnits="userSpaceOnUse"><stop stop-color="#47C2FF"/><stop offset="1" stop-color="#1CB4FF" stop-opacity=".71"/></linearGradient><linearGradient id="c" x1="1.92" y1="17.853" x2="36.996" y2="18.056" gradientUnits="userSpaceOnUse"><stop stop-color="#47C2FF"/><stop offset="1" stop-color="#1CB4FF" stop-opacity=".71"/></linearGradient><linearGradient id="d" x1="4.316" y1="17.297" x2="5.485" y2="17.299" gradientUnits="userSpaceOnUse"><stop stop-color="#47C2FF"/><stop offset="1" stop-color="#1CB4FF" stop-opacity=".71"/></linearGradient><linearGradient id="e" x1="11" y1="12.133" x2="37.353" y2="12.255" gradientUnits="userSpaceOnUse"><stop stop-color="#47C2FF"/><stop offset="1" stop-color="#63CBFE"/></linearGradient></defs></svg>