<svg width="102" height="25" fill="none" xmlns="http://www.w3.org/2000/svg"><path d="M1.366 23.93a.764.764 0 0 1-.561-.23.764.764 0 0 1-.231-.562V1.655c0-.242.077-.44.231-.594a.764.764 0 0 1 .561-.23h14.52c.242 0 .44.076.594.23a.804.804 0 0 1 .231.594v2.178c0 .22-.077.407-.231.561a.804.804 0 0 1-.594.231H5.029v5.841H15.16c.242 0 .44.077.594.231.154.132.231.32.231.561v2.046c0 .242-.077.44-.231.594a.88.88 0 0 1-.594.198H5.029v6.04H16.15c.242 0 .44.076.594.23a.804.804 0 0 1 .231.594v2.178c0 .22-.077.407-.231.561a.804.804 0 0 1-.594.231H1.366Z" fill="#FF6838"/><path d="M23.544 23.93a.764.764 0 0 1-.56-.23.764.764 0 0 1-.232-.562V1.655c0-.242.077-.44.231-.594a.764.764 0 0 1 .561-.23h14.322c.242 0 .44.076.594.23a.804.804 0 0 1 .231.594v2.31c0 .242-.077.44-.23.594a.88.88 0 0 1-.595.198H27.273v6.27h9.933c.242 0 .44.077.594.231a.804.804 0 0 1 .231.594v2.31c0 .22-.077.407-.23.561a.804.804 0 0 1-.595.231h-9.933v8.184c0 .22-.077.407-.23.561a.804.804 0 0 1-.595.231h-2.904Zm27.55.33c-1.76 0-3.246-.308-4.456-.924-1.188-.616-2.1-1.485-2.739-2.607-.616-1.122-.968-2.43-1.056-3.927-.022-.396-.033-.88-.033-1.452s.011-1.056.033-1.452c.088-1.518.451-2.827 1.09-3.927.66-1.122 1.583-1.99 2.771-2.607 1.21-.616 2.673-.924 4.39-.924 1.715 0 3.167.308 4.355.924 1.21.616 2.134 1.485 2.772 2.607.66 1.1 1.034 2.41 1.122 3.927.022.396.033.88.033 1.452s-.01 1.056-.033 1.452c-.088 1.496-.45 2.805-1.089 3.927-.616 1.122-1.529 1.991-2.739 2.607-1.188.616-2.662.924-4.422.924Zm0-3.267c1.165 0 2.067-.363 2.705-1.089.638-.748.99-1.837 1.056-3.267.022-.33.033-.759.033-1.287 0-.528-.01-.957-.033-1.287-.066-1.408-.418-2.486-1.056-3.234-.638-.748-1.54-1.122-2.706-1.122s-2.068.374-2.706 1.122c-.638.748-.99 1.826-1.056 3.234-.022.33-.033.76-.033 1.287 0 .528.011.957.033 1.287.066 1.43.418 2.52 1.056 3.267.638.726 1.54 1.09 2.706 1.09Zm21.179 3.267c-1.76 0-3.245-.308-4.455-.924-1.188-.616-2.101-1.485-2.74-2.607-.615-1.122-.967-2.43-1.055-3.927-.022-.396-.033-.88-.033-1.452s.01-1.056.033-1.452c.088-1.518.45-2.827 1.089-3.927.66-1.122 1.584-1.99 2.772-2.607 1.21-.616 2.673-.924 4.389-.924 1.716 0 3.168.308 4.356.924 1.21.616 2.134 1.485 2.772 2.607.66 1.1 1.034 2.41 1.122 3.927.022.396.033.88.033 1.452s-.011 1.056-.033 1.452c-.088 1.496-.451 2.805-1.09 3.927-.615 1.122-1.528 1.991-2.738 2.607-1.188.616-2.662.924-4.422.924Zm0-3.267c1.166 0 2.068-.363 2.706-1.089.638-.748.99-1.837 1.056-3.267.022-.33.033-.759.033-1.287 0-.528-.011-.957-.033-1.287-.066-1.408-.418-2.486-1.056-3.234-.638-.748-1.54-1.122-2.706-1.122s-2.068.374-2.706 1.122c-.638.748-.99 1.826-1.056 3.234-.022.33-.033.76-.033 1.287 0 .528.01.957.033 1.287.066 1.43.418 2.52 1.056 3.267.638.726 1.54 1.09 2.706 1.09ZM92.23 24.26c-1.144 0-2.156-.187-3.036-.56a5.91 5.91 0 0 1-2.145-1.65 7.638 7.638 0 0 1-1.32-2.476c-.308-.968-.484-2.024-.528-3.168a19.265 19.265 0 0 1-.033-1.056c0-.33.011-.693.033-1.089.044-1.1.209-2.123.495-3.069a7.633 7.633 0 0 1 1.32-2.475 6.056 6.056 0 0 1 2.178-1.683c.88-.396 1.892-.594 3.036-.594 1.188 0 2.189.21 3.003.627.836.396 1.529.913 2.079 1.551V1.292c0-.22.066-.407.198-.56A.804.804 0 0 1 98.105.5h2.805c.22 0 .407.077.561.231a.764.764 0 0 1 .231.561v21.846c0 .22-.077.407-.231.561a.764.764 0 0 1-.561.231h-2.607a.804.804 0 0 1-.594-.23.833.833 0 0 1-.198-.562v-1.22c-.55.681-1.254 1.242-2.112 1.682-.836.44-1.892.66-3.168.66Zm1.221-3.53c.924 0 1.661-.21 2.211-.628.55-.418.957-.946 1.221-1.584.264-.66.407-1.33.429-2.013.022-.396.033-.814.033-1.254 0-.462-.011-.89-.033-1.287a4.647 4.647 0 0 0-.462-1.88 3.825 3.825 0 0 0-1.254-1.519c-.55-.396-1.265-.594-2.145-.594-.924 0-1.661.21-2.211.627a3.385 3.385 0 0 0-1.155 1.584 7.508 7.508 0 0 0-.429 2.178c-.022.66-.022 1.32 0 1.98.044.792.187 1.518.429 2.178.242.66.627 1.2 1.155 1.617.55.396 1.287.594 2.211.594Z" fill="#363853"/></svg>