<svg width="102" height="25" viewBox="0 0 102 25" fill="none" xmlns="http://www.w3.org/2000/svg">
<path d="M1.366 23.9304C1.146 23.9304 0.959 23.8534 0.805 23.6994C0.651 23.5454 0.574 23.3584 0.574 23.1384V1.65542C0.574 1.41342 0.651 1.21542 0.805 1.06142C0.959 0.907419 1.146 0.830418 1.366 0.830418H15.886C16.128 0.830418 16.326 0.907419 16.48 1.06142C16.634 1.21542 16.711 1.41342 16.711 1.65542V3.83342C16.711 4.05342 16.634 4.24042 16.48 4.39442C16.326 4.54842 16.128 4.62542 15.886 4.62542H5.029V10.4664H15.16C15.402 10.4664 15.6 10.5434 15.754 10.6974C15.908 10.8294 15.985 11.0164 15.985 11.2584V13.3044C15.985 13.5464 15.908 13.7444 15.754 13.8984C15.6 14.0304 15.402 14.0964 15.16 14.0964H5.029V20.1354H16.15C16.392 20.1354 16.59 20.2124 16.744 20.3664C16.898 20.5204 16.975 20.7184 16.975 20.9604V23.1384C16.975 23.3584 16.898 23.5454 16.744 23.6994C16.59 23.8534 16.392 23.9304 16.15 23.9304H1.366Z" fill="#FF6838"/>
<path d="M23.5443 23.9304C23.3243 23.9304 23.1373 23.8534 22.9833 23.6994C22.8293 23.5454 22.7523 23.3584 22.7523 23.1384V1.65542C22.7523 1.41342 22.8293 1.21542 22.9833 1.06142C23.1373 0.907419 23.3243 0.830418 23.5443 0.830418H37.8663C38.1083 0.830418 38.3063 0.907419 38.4603 1.06142C38.6143 1.21542 38.6913 1.41342 38.6913 1.65542V3.96542C38.6913 4.20742 38.6143 4.40542 38.4603 4.55942C38.3063 4.69142 38.1083 4.75742 37.8663 4.75742H27.2733V11.0274H37.2063C37.4483 11.0274 37.6463 11.1044 37.8003 11.2584C37.9543 11.4124 38.0313 11.6104 38.0313 11.8524V14.1624C38.0313 14.3824 37.9543 14.5694 37.8003 14.7234C37.6463 14.8774 37.4483 14.9544 37.2063 14.9544H27.2733V23.1384C27.2733 23.3584 27.1963 23.5454 27.0423 23.6994C26.8883 23.8534 26.6903 23.9304 26.4483 23.9304H23.5443ZM51.0934 24.2604C49.3334 24.2604 47.8484 23.9524 46.6384 23.3364C45.4504 22.7204 44.5374 21.8514 43.8994 20.7294C43.2834 19.6074 42.9314 18.2984 42.8434 16.8024C42.8214 16.4064 42.8104 15.9224 42.8104 15.3504C42.8104 14.7784 42.8214 14.2944 42.8434 13.8984C42.9314 12.3804 43.2944 11.0714 43.9324 9.97142C44.5924 8.84942 45.5164 7.98042 46.7044 7.36442C47.9144 6.74842 49.3774 6.44042 51.0934 6.44042C52.8094 6.44042 54.2614 6.74842 55.4494 7.36442C56.6594 7.98042 57.5834 8.84942 58.2214 9.97142C58.8814 11.0714 59.2554 12.3804 59.3434 13.8984C59.3654 14.2944 59.3764 14.7784 59.3764 15.3504C59.3764 15.9224 59.3654 16.4064 59.3434 16.8024C59.2554 18.2984 58.8924 19.6074 58.2544 20.7294C57.6384 21.8514 56.7254 22.7204 55.5154 23.3364C54.3274 23.9524 52.8534 24.2604 51.0934 24.2604ZM51.0934 20.9934C52.2594 20.9934 53.1614 20.6304 53.7994 19.9044C54.4374 19.1564 54.7894 18.0674 54.8554 16.6374C54.8774 16.3074 54.8884 15.8784 54.8884 15.3504C54.8884 14.8224 54.8774 14.3934 54.8554 14.0634C54.7894 12.6554 54.4374 11.5774 53.7994 10.8294C53.1614 10.0814 52.2594 9.70742 51.0934 9.70742C49.9274 9.70742 49.0254 10.0814 48.3874 10.8294C47.7494 11.5774 47.3974 12.6554 47.3314 14.0634C47.3094 14.3934 47.2984 14.8224 47.2984 15.3504C47.2984 15.8784 47.3094 16.3074 47.3314 16.6374C47.3974 18.0674 47.7494 19.1564 48.3874 19.9044C49.0254 20.6304 49.9274 20.9934 51.0934 20.9934ZM72.2727 24.2604C70.5127 24.2604 69.0277 23.9524 67.8177 23.3364C66.6297 22.7204 65.7167 21.8514 65.0787 20.7294C64.4627 19.6074 64.1107 18.2984 64.0227 16.8024C64.0007 16.4064 63.9897 15.9224 63.9897 15.3504C63.9897 14.7784 64.0007 14.2944 64.0227 13.8984C64.1107 12.3804 64.4737 11.0714 65.1117 9.97142C65.7717 8.84942 66.6957 7.98042 67.8837 7.36442C69.0937 6.74842 70.5567 6.44042 72.2727 6.44042C73.9887 6.44042 75.4407 6.74842 76.6287 7.36442C77.8387 7.98042 78.7627 8.84942 79.4007 9.97142C80.0607 11.0714 80.4347 12.3804 80.5227 13.8984C80.5447 14.2944 80.5557 14.7784 80.5557 15.3504C80.5557 15.9224 80.5447 16.4064 80.5227 16.8024C80.4347 18.2984 80.0717 19.6074 79.4337 20.7294C78.8177 21.8514 77.9047 22.7204 76.6947 23.3364C75.5067 23.9524 74.0327 24.2604 72.2727 24.2604ZM72.2727 20.9934C73.4387 20.9934 74.3407 20.6304 74.9787 19.9044C75.6167 19.1564 75.9687 18.0674 76.0347 16.6374C76.0567 16.3074 76.0677 15.8784 76.0677 15.3504C76.0677 14.8224 76.0567 14.3934 76.0347 14.0634C75.9687 12.6554 75.6167 11.5774 74.9787 10.8294C74.3407 10.0814 73.4387 9.70742 72.2727 9.70742C71.1067 9.70742 70.2047 10.0814 69.5667 10.8294C68.9287 11.5774 68.5767 12.6554 68.5107 14.0634C68.4887 14.3934 68.4777 14.8224 68.4777 15.3504C68.4777 15.8784 68.4887 16.3074 68.5107 16.6374C68.5767 18.0674 68.9287 19.1564 69.5667 19.9044C70.2047 20.6304 71.1067 20.9934 72.2727 20.9934ZM92.231 24.2604C91.087 24.2604 90.075 24.0734 89.195 23.6994C88.337 23.3034 87.622 22.7534 87.05 22.0494C86.478 21.3454 86.038 20.5204 85.73 19.5744C85.422 18.6064 85.246 17.5504 85.202 16.4064C85.18 16.0104 85.169 15.6584 85.169 15.3504C85.169 15.0204 85.18 14.6574 85.202 14.2614C85.246 13.1614 85.411 12.1384 85.697 11.1924C86.005 10.2464 86.445 9.42142 87.017 8.71742C87.611 7.99142 88.337 7.43042 89.195 7.03442C90.075 6.63842 91.087 6.44042 92.231 6.44042C93.419 6.44042 94.42 6.64942 95.234 7.06742C96.07 7.46342 96.763 7.98042 97.313 8.61842V1.29242C97.313 1.07242 97.379 0.885419 97.511 0.73142C97.665 0.577419 97.863 0.500419 98.105 0.500419H100.91C101.13 0.500419 101.317 0.577419 101.471 0.73142C101.625 0.885419 101.702 1.07242 101.702 1.29242V23.1384C101.702 23.3584 101.625 23.5454 101.471 23.6994C101.317 23.8534 101.13 23.9304 100.91 23.9304H98.303C98.061 23.9304 97.863 23.8534 97.709 23.6994C97.577 23.5454 97.511 23.3584 97.511 23.1384V21.9174C96.961 22.5994 96.257 23.1604 95.399 23.6004C94.563 24.0404 93.507 24.2604 92.231 24.2604ZM93.452 20.7294C94.376 20.7294 95.113 20.5204 95.663 20.1024C96.213 19.6844 96.62 19.1564 96.884 18.5184C97.148 17.8584 97.291 17.1874 97.313 16.5054C97.335 16.1094 97.346 15.6914 97.346 15.2514C97.346 14.7894 97.335 14.3604 97.313 13.9644C97.291 13.3044 97.137 12.6774 96.851 12.0834C96.565 11.4674 96.147 10.9614 95.597 10.5654C95.047 10.1694 94.332 9.97142 93.452 9.97142C92.528 9.97142 91.791 10.1804 91.241 10.5984C90.713 10.9944 90.328 11.5224 90.086 12.1824C89.844 12.8424 89.701 13.5684 89.657 14.3604C89.635 15.0204 89.635 15.6804 89.657 16.3404C89.701 17.1324 89.844 17.8584 90.086 18.5184C90.328 19.1784 90.713 19.7174 91.241 20.1354C91.791 20.5314 92.528 20.7294 93.452 20.7294Z" fill="#363853"/>
</svg>
