<svg width="20" height="22" viewBox="0 0 20 22" fill="none" xmlns="http://www.w3.org/2000/svg">
<path d="M10.5748 2.5401V1.58126C10.5748 1.41919 10.5104 1.26375 10.3958 1.14914C10.2812 1.03454 10.1257 0.970154 9.96367 0.970154C9.80159 0.970154 9.64615 1.03454 9.53155 1.14914C9.41694 1.26375 9.35256 1.41919 9.35256 1.58126V2.5456C4.55045 2.87926 0.744446 6.88968 0.744446 11.7752C0.744446 16.8777 4.89664 21.0299 10 21.0299C15.1034 21.0299 19.2556 16.8777 19.2556 11.7752C19.2556 6.86524 15.4114 2.83801 10.5748 2.5401ZM10 19.8077C5.57039 19.8077 1.96667 16.2039 1.96667 11.7752C1.96667 7.34588 5.57039 3.74246 10 3.74246C14.4297 3.74246 18.0334 7.34588 18.0334 11.7752C18.0334 16.2039 14.4297 19.8077 10 19.8077Z" fill="#363853"/>
<path d="M6.86295 17.3216C4.86798 16.1901 3.62864 14.0644 3.62864 11.7749C3.62864 11.6056 3.49206 11.4693 3.32309 11.4693C3.15412 11.4693 3.01753 11.6056 3.01753 11.7749C3.01753 14.2841 4.37573 16.6133 6.56167 17.8536C6.63221 17.8935 6.71574 17.9038 6.79387 17.8822C6.872 17.8606 6.93834 17.8088 6.9783 17.7382C7.01825 17.6677 7.02854 17.5842 7.00691 17.506C6.98528 17.4279 6.93349 17.3616 6.86295 17.3216Z" fill="#363853"/>
<path d="M8.52923 18.1598C8.41091 18.129 8.29343 18.0949 8.17693 18.0578C8.10021 18.0348 8.01754 18.0429 7.94672 18.0803C7.87589 18.1176 7.82257 18.1813 7.79822 18.2576C7.77387 18.3339 7.78044 18.4167 7.81653 18.4882C7.85261 18.5597 7.91531 18.6141 7.99115 18.6399C8.11826 18.6808 8.24598 18.7175 8.37646 18.7508C8.4549 18.771 8.53817 18.7593 8.60796 18.7181C8.67775 18.677 8.72835 18.6098 8.74862 18.5314C8.75868 18.4926 8.76098 18.4522 8.75539 18.4125C8.7498 18.3728 8.73643 18.3346 8.71605 18.3001C8.69567 18.2656 8.66868 18.2354 8.63662 18.2113C8.60456 18.1873 8.56807 18.1698 8.52923 18.1598Z" fill="#363853"/>
<path d="M17.8854 5.72793C18.0002 5.84236 18.1557 5.90651 18.3177 5.90628C18.4798 5.90605 18.6351 5.84146 18.7495 5.72671C18.864 5.61196 18.9281 5.45645 18.9279 5.2944C18.9277 5.13235 18.8631 4.97702 18.7483 4.8626L17.1616 3.27982C17.1048 3.2231 17.0374 3.17813 16.9632 3.14749C16.889 3.11685 16.8095 3.10114 16.7293 3.10125C16.649 3.10137 16.5695 3.1173 16.4955 3.14815C16.4214 3.179 16.3541 3.22416 16.2975 3.28104C16.1831 3.39584 16.119 3.55133 16.1193 3.71335C16.1195 3.87537 16.184 4.03067 16.2987 4.14515L17.8854 5.72793Z" fill="#363853"/>
<path d="M10.5746 11.6612V6.7757C10.5746 6.61362 10.5102 6.45818 10.3956 6.34358C10.281 6.22897 10.1256 6.16459 9.9635 6.16459C9.80142 6.16459 9.64598 6.22897 9.53138 6.34358C9.41677 6.45818 9.35239 6.61362 9.35239 6.7757V11.9252C9.35239 12.0936 9.44008 12.254 9.5623 12.3692L11.3507 14.0406C11.469 14.1518 11.6196 14.2074 11.7702 14.2074C11.8521 14.2075 11.9331 14.1905 12.008 14.1575C12.0828 14.1244 12.15 14.0761 12.2051 14.0155C12.4376 13.7699 12.4168 13.3833 12.1714 13.1517L10.5746 11.6612Z" fill="#363853"/>
</svg>
