<svg width="23" height="18" fill="none" xmlns="http://www.w3.org/2000/svg"><path d="M5.52 9c1.173.107 2.133.56 2.88 1.36.747.8 1.12 1.813 1.12 3.04 0 1.333-.4 2.427-1.2 3.28-.8.8-1.813 1.2-3.04 1.2-1.387 0-2.507-.507-3.36-1.52-.8-1.013-1.2-2.587-1.2-4.72C.72 7.533 2.08 3.987 4.8 1 5.333.467 5.947.2 6.64.2c.587 0 1.093.213 1.52.64.427.373.64.827.64 1.36 0 .587-.213 1.093-.64 1.52C6.773 5.16 5.893 6.92 5.52 9ZM18.8 9c1.173.107 2.133.56 2.88 1.36.747.8 1.12 1.813 1.12 3.04 0 1.333-.4 2.427-1.2 3.28-.8.8-1.813 1.2-3.04 1.2-1.387 0-2.507-.507-3.36-1.52-.8-1.013-1.2-2.587-1.2-4.72C14 7.533 15.36 3.987 18.08 1c.533-.533 1.147-.8 1.84-.8.587 0 1.093.213 1.52.64.427.373.64.827.64 1.36 0 .587-.213 1.093-.64 1.52-1.387 1.44-2.267 3.2-2.64 5.28Z" fill="#DDD"/></svg>