<svg width="35" height="37" fill="none" xmlns="http://www.w3.org/2000/svg"><g clip-path="url(#a)"><path d="M26.688 32.188h-3.063v-8.79a1.904 1.904 0 0 0 1.392-2.546l-1.392-3.621v-6.919a.437.437 0 0 0-.438-.437H4.813a.437.437 0 0 0-.437.438v6.918l-1.392 3.62A1.902 1.902 0 0 0 4.375 23.4v8.788H1.312a.437.437 0 0 0-.437.438v3.063a.437.437 0 0 0 .438.437h25.375a.437.437 0 0 0 .437-.438v-3.062a.437.437 0 0 0-.438-.438Zm-4.813 0v-9.332a1.9 1.9 0 0 0 .875.516v8.816h-.875Zm-3.5.437v2.625h-1.75v-3.063h.875a.438.438 0 0 0 .438-.437v-1.313A.438.438 0 0 0 17.5 30h-2.625a.438.438 0 0 0-.438.438v1.312a.438.438 0 0 0 .438.438h.875v3.062H14v-2.625a.437.437 0 0 0-.438-.438h-.874v-1.312a.437.437 0 0 0-.438-.438h-.875v-7.04a1.902 1.902 0 0 0 1.081-.651 1.883 1.883 0 0 0 1.467.692h.154a1.885 1.885 0 0 0 1.467-.692c.063.076.132.147.206.213v1.354a2.19 2.19 0 0 0-2.188 2.187.437.437 0 0 0 .438.438h4.375a.437.437 0 0 0 .438-.438 2.19 2.19 0 0 0-2.188-2.188v-.914c.127.026.257.04.387.04h.136a1.901 1.901 0 0 0 1.484-.712 1.896 1.896 0 0 0 1.486.712h.085c.275 0 .547-.059.797-.173v7.172h-.875a.437.437 0 0 0-.438.438v1.313h-.875a.437.437 0 0 0-.437.437Zm-3.063-1.313v-.437h1.75v.438h-1.75ZM6.806 21.265l.966-3.515h1.776l-.652 3.952a1.024 1.024 0 0 1-1.013.86h-.085a1.028 1.028 0 0 1-.992-1.297Zm.195 2c.25.114.522.173.797.172h.085a1.895 1.895 0 0 0 1.486-.712 1.899 1.899 0 0 0 1.132.68v2.22H7v-2.36Zm3.852-.703a1.026 1.026 0 0 1-1.014-1.194l.596-3.618h1.791l-.21 3.841a1.027 1.027 0 0 1-1.027.971h-.136Zm3.971-.32a1.017 1.017 0 0 1-.746.32h-.154a1.026 1.026 0 0 1-1.026-1.08l.204-3.732h1.797l.205 3.729v.002a1.014 1.014 0 0 1-.28.76Zm1.163-.65-.211-3.842h1.791l.596 3.618a1.029 1.029 0 0 1-1.014 1.195h-.136a1.027 1.027 0 0 1-1.026-.972Zm.639 3.596a1.314 1.314 0 0 1 1.238.875h-3.35a1.315 1.315 0 0 1 1.237-.875h.875Zm4.395-3.03a1.02 1.02 0 0 1-.817.404h-.085a1.024 1.024 0 0 1-1.013-.86l-.652-3.952h1.776l.965 3.513v.002a1.023 1.023 0 0 1-.174.893Zm-.457 9.154H21v.875h-.438v-.874ZM24.2 21.166a1.028 1.028 0 1 1-1.95.641l-1.115-4.057h1.751l1.314 3.416ZM5.25 10.75h17.5v6.125H5.25V10.75ZM3.911 22.117a1.014 1.014 0 0 1-.112-.951l1.314-3.416h1.75L5.75 21.807a1.03 1.03 0 0 1-1.47.639 1.013 1.013 0 0 1-.368-.33Zm1.339 1.255a1.9 1.9 0 0 0 .875-.516v9.331H5.25v-8.815Zm3.5 11.878h-7v-2.188h7v2.188Zm.438-3.063H7V26.5h3.5v8.75h-.875v-2.625a.437.437 0 0 0-.438-.438Zm2.187-.874h.438v1.312a.437.437 0 0 0 .437.438h.875v2.187h-1.75v-3.938ZM26.25 35.25h-7v-2.188h7v2.188Z" fill="url(#b)"/><path d="M17.063 14.25h-.475a2.63 2.63 0 0 0-2.15-2.15v-.475a.438.438 0 0 0-.876 0v.475a2.63 2.63 0 0 0-2.15 2.15h-.475a.438.438 0 0 0-.437.438 1.752 1.752 0 0 0 1.75 1.75h3.5a1.752 1.752 0 0 0 1.75-1.75.438.438 0 0 0-.438-.438ZM14 12.937a1.753 1.753 0 0 1 1.695 1.313h-3.39A1.753 1.753 0 0 1 14 12.937Zm1.75 2.626h-3.5a.875.875 0 0 1-.758-.438h5.016a.876.876 0 0 1-.758.438Z" fill="url(#c)"/><path d="M10.743 13.302a.437.437 0 0 0 .194-.364v-1.313h-.874v1.063a1.93 1.93 0 0 1-.438.16v-1.223H8.75v1.223a1.93 1.93 0 0 1-.438-.16v-1.063h-.874v1.313a.437.437 0 0 0 .194.364c.337.224.718.373 1.118.437v2.698h.875V13.74c.4-.064.781-.213 1.118-.438Z" fill="url(#d)"/><path d="M18.812 11.188a1.75 1.75 0 0 0-.437 3.444v1.806h.875v-1.806a1.75 1.75 0 0 0-.438-3.444Zm0 2.624a.874.874 0 1 1 0-1.748.874.874 0 0 1 0 1.748Z" fill="url(#e)"/></g><ellipse opacity=".15" cx="22.097" cy="12.5" rx="12.097" ry="12.5" fill="url(#f)"/><defs><linearGradient id="b" x1=".875" y1="22.125" x2="26.496" y2="22.239" gradientUnits="userSpaceOnUse"><stop stop-color="#FF5050"/><stop offset="1" stop-color="#FF7070" stop-opacity=".84"/></linearGradient><linearGradient id="c" x1="10.5" y1="13.637" x2="17.332" y2="13.678" gradientUnits="userSpaceOnUse"><stop stop-color="#FF5050"/><stop offset="1" stop-color="#FF7070" stop-opacity=".84"/></linearGradient><linearGradient id="d" x1="7.438" y1="13.871" x2="10.854" y2="13.882" gradientUnits="userSpaceOnUse"><stop stop-color="#FF5050"/><stop offset="1" stop-color="#FF7070" stop-opacity=".84"/></linearGradient><linearGradient id="e" x1="17.062" y1="13.637" x2="20.479" y2="13.648" gradientUnits="userSpaceOnUse"><stop stop-color="#FF5050"/><stop offset="1" stop-color="#FF7070" stop-opacity=".84"/></linearGradient><linearGradient id="f" x1="10" y1="11.667" x2="33.614" y2="11.769" gradientUnits="userSpaceOnUse"><stop stop-color="#FF7070"/><stop offset="1" stop-color="#FF7070" stop-opacity=".65"/></linearGradient><clipPath id="a"><path fill="#fff" transform="translate(0 9)" d="M0 0h28v28H0z"/></clipPath></defs></svg>