<svg width="14" height="15" viewBox="0 0 14 15" fill="none" xmlns="http://www.w3.org/2000/svg">
<path d="M8.52503 14.3001C8.27998 14.3001 8.05378 14.1616 7.94328 13.9406L6.01408 10.0822C5.90813 9.87034 5.92633 9.61684 6.06088 9.42119L9.17503 5.20009L4.95328 8.31359C4.75763 8.44879 4.50413 8.46569 4.29223 8.36039L0.434476 6.43184C0.203076 6.31549 0.0620263 6.07304 0.0763263 5.81434C0.0899763 5.55564 0.257026 5.32944 0.500126 5.24039L12.8501 0.690388C13.0874 0.603938 13.3545 0.660488 13.5346 0.840538C13.714 1.01929 13.7725 1.28709 13.6847 1.52499L9.13473 13.875C9.04503 14.1181 8.81948 14.2851 8.56078 14.2988C8.54908 14.2994 8.53673 14.3001 8.52503 14.3001Z" fill="white"/>
</svg>
